<svg aria-hidden="true" style="position: absolute; width: 0; height: 0; overflow: hidden;" version="1.1" xmlns="http://www.w3.org/2000/svg" xmlns:xlink="http://www.w3.org/1999/xlink">
<defs>
<symbol id="icon-opencart" viewBox="0 0 43 28">
<path d="M23.812 24.391c0 1.422-1.141 2.562-2.562 2.562s-2.578-1.141-2.578-2.562 1.156-2.578 2.578-2.578 2.562 1.156 2.562 2.578zM12.109 24.391c0 1.422-1.156 2.562-2.578 2.562s-2.562-1.141-2.562-2.562 1.141-2.578 2.562-2.578 2.578 1.156 2.578 2.578zM0 1.047c4.609 4.859 8.937 5.578 25.937 5.578s9.531 3.781-0.969 13.156c3.328-5.781 14.766-10.906-3.984-10.625-17.984 0.266-19.047-5.203-20.984-8.109z"></path>
</symbol>
<symbol id="icon-search" viewBox="0 0 32 32">
<path d="M31.008 27.231l-7.58-6.447c-0.784-0.705-1.622-1.029-2.299-0.998 1.789-2.096 2.87-4.815 2.87-7.787 0-6.627-5.373-12-12-12s-12 5.373-12 12 5.373 12 12 12c2.972 0 5.691-1.081 7.787-2.87-0.031 0.677 0.293 1.515 0.998 2.299l6.447 7.58c1.104 1.226 2.907 1.33 4.007 0.23s0.997-2.903-0.23-4.007zM12 20c-4.418 0-8-3.582-8-8s3.582-8 8-8 8 3.582 8 8-3.582 8-8 8z"></path>
</symbol>
</defs>
</svg>
